<svg xmlns="http://www.w3.org/2000/svg" viewBox="0 0 640 400" role="img" aria-label="Giao diện minh hoạ">
  <rect width="640" height="400" rx="12" fill="#1b2430"/>
  <rect x="16" y="16" width="608" height="36" rx="8" fill="#2a3646"/>
  <circle cx="38" cy="34" r="6" fill="#ff5f57"/><circle cx="58" cy="34" r="6" fill="#febc2e"/><circle cx="78" cy="34" r="6" fill="#28c840"/>
  <rect x="16" y="68" width="180" height="316" rx="8" fill="#232e3c"/>
  <rect x="32" y="88"  width="140" height="10" rx="5" fill="#3d4d61"/>
  <rect x="32" y="112" width="112" height="10" rx="5" fill="#3d4d61"/>
  <rect x="32" y="136" width="148" height="10" rx="5" fill="#4d90fe"/>
  <rect x="32" y="160" width="96"  height="10" rx="5" fill="#3d4d61"/>
  <rect x="212" y="68" width="412" height="316" rx="8" fill="#232e3c"/>
  <rect x="232" y="92"  width="240" height="16" rx="6" fill="#e8edf3"/>
  <rect x="232" y="128" width="372" height="9" rx="4" fill="#42536a"/>
  <rect x="232" y="148" width="356" height="9" rx="4" fill="#42536a"/>
  <rect x="232" y="168" width="300" height="9" rx="4" fill="#42536a"/>
  <rect x="232" y="200" width="372" height="9" rx="4" fill="#42536a"/>
  <rect x="232" y="220" width="220" height="9" rx="4" fill="#42536a"/>
  <rect x="232" y="256" width="160" height="28" rx="6" fill="#4d90fe"/>
</svg>
